HIERARCHY
ROOT Hips
{
    OFFSET 0.000000 0.000000 0.000000
    CHANNELS 6 Xposition Yposition Zposition Zrotation Xrotation Yrotation
    JOINT Spine
    {
        OFFSET -0.000000 14.517291 0.000000
        CHANNELS 3 Zrotation Xrotation Yrotation
        JOINT Spine1
        {
            OFFSET -0.000000 37.558300 0.000000
            CHANNELS 3 Zrotation Xrotation Yrotation
            JOINT Neck
            {
                OFFSET -0.000000 37.404057 3.400369
                CHANNELS 3 Zrotation Xrotation Yrotation
                JOINT Head
                {
                    OFFSET -0.000000 24.785618 -3.540803
                    CHANNELS 3 Zrotation Xrotation Yrotation
                    End Site
                    {
                        OFFSET -0.000000 35.408028 0.000000
                    }
                }
            }
            JOINT LeftShoulder
            {
                OFFSET 6.992933 33.973492 -0.192664
                CHANNELS 3 Zrotation Xrotation Yrotation
                JOINT LeftArm
                {
                    OFFSET 21.527611 0.000000 0.000000
                    CHANNELS 3 Zrotation Xrotation Yrotation
                    JOINT LeftForeArm
                    {
                        OFFSET 56.353916 0.000000 0.000000
                        CHANNELS 3 Zrotation Xrotation Yrotation
                        JOINT LeftHand
                        {
                            OFFSET 47.774071 0.000000 0.000000
                            CHANNELS 3 Zrotation Xrotation Yrotation
                            End Site
                            {
                                OFFSET 26.556021 0.000000 0.000000
                            }
                        }
                    }
                }
            }
            JOINT RightShoulder
            {
                OFFSET -7.065357 33.973492 -0.192664
                CHANNELS 3 Zrotation Xrotation Yrotation
                JOINT RightArm
                {
                    OFFSET -21.527611 0.000000 0.000000
                    CHANNELS 3 Zrotation Xrotation Yrotation
                    JOINT RightForeArm
                    {
                        OFFSET -56.353916 0.000000 0.000000
                        CHANNELS 3 Zrotation Xrotation Yrotation
                        JOINT RightHand
                        {
                            OFFSET -47.774071 0.000000 0.000000
                            CHANNELS 3 Zrotation Xrotation Yrotation
                            End Site
                            {
                                OFFSET -26.556021 0.000000 0.000000
                            }
                        }
                    }
                }
            }
        }
    }
    JOINT LeftUpLeg
    {
        OFFSET 17.704014 0.000000 0.000000
        CHANNELS 3 Zrotation Xrotation Yrotation
        JOINT LeftLeg
        {
            OFFSET -0.000000 -81.181816 0.000000
            CHANNELS 3 Zrotation Xrotation Yrotation
            JOINT LeftFoot
            {
                OFFSET -0.000000 -62.821102 0.000000
                CHANNELS 3 Zrotation Xrotation Yrotation
                JOINT LeftToeBase
                {
                    OFFSET -0.000000 -11.507608 26.556021
                    CHANNELS 3 Zrotation Xrotation Yrotation
                    End Site
                    {
                        OFFSET -0.000000 0.000000 7.081605
                    }
                }
            }
        }
    }
    JOINT RightUpLeg
    {
        OFFSET -17.704014 0.000000 0.000000
        CHANNELS 3 Zrotation Xrotation Yrotation
        JOINT RightLeg
        {
            OFFSET -0.000000 -81.181816 0.000000
            CHANNELS 3 Zrotation Xrotation Yrotation
            JOINT RightFoot
            {
                OFFSET -0.000000 -62.821102 0.000000
                CHANNELS 3 Zrotation Xrotation Yrotation
                JOINT RightToeBase
                {
                    OFFSET -0.000000 -11.507608 26.556021
                    CHANNELS 3 Zrotation Xrotation Yrotation
                    End Site
                    {
                        OFFSET -0.000000 0.000000 7.081605
                    }
                }
            }
        }
    }
}
MOTION
Frames:    8
Frame Time:    0.008333
32.616016    159.865875    -102.796196    -0.501627    -0.487724    26.894743    -1.012158    -3.551330    -1.089397    -0.127288    5.848960    -0.346513    -1.171604    -5.528456    -5.380583    11.178825    3.549435    -4.115998    19.332281    2.694594    -8.933886    -33.780247    31.658689    27.583609    -28.137499    22.812019    -110.520668    0.972193    -19.699577    -19.781157    -13.555334    2.168322    -12.320974    22.923607    19.215759    13.112968    18.130823    16.764605    3.392393    1.403426    16.513321    22.498808    8.798690    0.902699    -1.189072    -10.284285    21.793512    -17.455135    6.640001    -20.727625    44.501816    0.000000    0.000000    0.000000    -15.489065    -26.556908    -9.572447    11.570192    27.102627    -14.168200    3.539696    12.895000    -12.190767    0.000000    0.000000    0.000000    
32.653564    159.845917    -102.786064    -0.497384    -0.528945    26.933392    -1.007354    -3.531930    -1.112580    -0.140354    5.859765    -0.353706    -1.169358    -5.568037    -5.362927    11.189560    3.564160    -4.097844    19.306335    2.696379    -8.974314    -33.780056    31.665773    27.494970    -28.092871    22.738443    -110.610374    0.958655    -19.772533    -19.701332    -13.553741    2.159426    -12.286791    22.912632    19.175827    13.121531    18.163559    16.796318    3.378571    1.320410    16.530592    22.514500    8.812787    0.932257    -1.173802    -10.282375    21.822872    -17.478197    6.636454    -20.779125    44.488846    0.000000    0.000000    0.000000    -15.500977    -26.508942    -9.537837    11.607258    27.122377    -14.209326    3.546682    12.858116    -12.216576    0.000000    0.000000    0.000000    
32.694874    159.826645    -102.775681    -0.489940    -0.567502    26.961946    -1.003609    -3.515931    -1.125841    -0.147698    5.870759    -0.357732    -1.206616    -5.592966    -5.362247    11.232230    3.572998    -4.085527    19.274652    2.677803    -9.036261    -33.826408    31.716269    27.455500    -28.024277    22.631491    -110.708099    0.924026    -19.843430    -19.719624    -13.566784    2.160097    -12.275251    22.908251    19.175844    13.151493    18.159620    16.774385    3.389848    1.324291    16.507778    22.516460    8.817018    0.964860    -1.129062    -10.263494    21.848333    -17.496248    6.610737    -20.831257    44.451202    0.000000    0.000000    0.000000    -15.517011    -26.468628    -9.524812    11.635640    27.151705    -14.231997    3.558629    12.819654    -12.246502    0.000000    0.000000    0.000000    
32.733482    159.807220    -102.766373    -0.482323    -0.599290    26.980753    -1.006338    -3.506406    -1.138757    -0.150384    5.874569    -0.362030    -1.275308    -5.590052    -5.365749    11.320631    3.566537    -4.064971    19.233524    2.681724    -9.081235    -33.843040    31.775288    27.390703    -27.973190    22.522276    -110.808784    0.920658    -19.952646    -19.688896    -13.588186    2.172834    -12.255281    22.905556    19.162308    13.194184    18.177500    16.756184    3.383521    1.351925    16.495064    22.498413    8.820616    0.985064    -1.077370    -10.226613    22.018652    -17.609438    6.598979    -20.999136    44.437599    0.000000    0.000000    0.000000    -15.534707    -26.436960    -9.515100    11.664804    27.181747    -14.257794    3.560457    12.777279    -12.251566    0.000000    0.000000    0.000000    
32.778004    159.787628    -102.752731    -0.470381    -0.628358    26.984985    -1.010019    -3.515725    -1.138691    -0.163816    5.905790    -0.361089    -1.286232    -5.615175    -5.359118    11.332872    3.579918    -4.055531    19.197618    2.660771    -9.132442    -33.888157    31.849068    27.345629    -27.863340    22.371881    -110.945099    0.925358    -20.036711    -19.651239    -13.613981    2.161785    -12.237148    22.919304    19.191292    13.217753    18.170170    16.735622    3.394685    1.409068    16.483574    22.474854    8.814744    1.026690    -1.032416    -10.211558    22.031109    -17.622293    6.597514    -21.033504    44.412216    0.000000    0.000000    0.000000    -15.552276    -26.412096    -9.512065    11.681094    27.221117    -14.264763    3.567329    12.746102    -12.246897    0.000000    0.000000    0.000000    
32.821758    159.772156    -102.737091    -0.460320    -0.650674    26.978216    -1.028802    -3.528400    -1.136759    -0.162144    5.929985    -0.360255    -1.292570    -5.649688    -5.344720    11.348589    3.611085    -4.040164    19.168447    2.644708    -9.186326    -33.926285    31.889198    27.306692    -27.743628    22.252052    -111.067894    0.873978    -20.053398    -19.691624    -13.624961    2.158688    -12.230744    22.902716    19.218195    13.262884    18.166796    16.713058    3.422364    1.453131    16.465225    22.475693    8.808382    1.068438    -0.996184    -10.205672    22.035631    -17.608017    6.560822    -21.094742    44.374508    0.000000    0.000000    0.000000    -15.567890    -26.392937    -9.501364    11.703176    27.251421    -14.287476    3.549578    12.714183    -12.229572    0.000000    0.000000    0.000000    
32.865711    159.759109    -102.718948    -0.450858    -0.675093    26.964029    -1.045786    -3.543627    -1.136680    -0.163419    5.957937    -0.359892    -1.306322    -5.690986    -5.334179    11.363798    3.658680    -4.028928    19.145565    2.642098    -9.224644    -33.905457    31.889360    27.223005    -27.680708    22.203863    -111.138626    0.856372    -20.053499    -19.693737    -13.634912    2.166449    -12.215565    22.893549    19.244146    13.315458    18.151527    16.721544    3.442622    1.440543    16.469095    22.508841    8.800170    1.124358    -0.965863    -10.206151    21.894083    -17.516424    6.501564    -21.032541    44.317764    0.000000    0.000000    0.000000    -15.576859    -26.372257    -9.516038    11.705751    27.284779    -14.291510    3.543985    12.692008    -12.192659    0.000000    0.000000    0.000000    
32.910805    159.750916    -102.701782    -0.444374    -0.690762    26.948202    -1.067787    -3.566221    -1.143228    -0.171579    5.989015    -0.361216    -1.247400    -5.762685    -5.297651    11.304976    3.721319    -4.014513    19.141890    2.652988    -9.236462    -33.867031    31.867748    27.113243    -27.662031    22.210558    -111.180321    0.854469    -20.049772    -19.647339    -13.626209    2.154813    -12.198458    22.873154    19.241262    13.362792    18.155712    16.751055    3.466644    1.404480    16.487946    22.508133    8.788829    1.149653    -0.945294    -10.182362    22.030453    -17.596405    6.505088    -21.164694    44.342812    0.000000    0.000000    0.000000    -15.588040    -26.357784    -9.533496    11.703996    27.309271    -14.272779    3.562266    12.680018    -12.189272    0.000000    0.000000    0.000000    
